<?xml version="1.0" encoding="utf-8"?>
<!-- Generator: Adobe Illustrator 19.0.0, SVG Export Plug-In . SVG Version: 6.00 Build 0)  -->
<svg version="1.1" id="Layer_1" xmlns="http://www.w3.org/2000/svg" xmlns:xlink="http://www.w3.org/1999/xlink" x="0px" y="0px"
	 viewBox="0 0 471.2 224.7" style="enable-background:new 0 0 471.2 224.7;" xml:space="preserve">
<style type="text/css">
	.st0{fill:#FFFFFF;}
	.st1{fill:#A79B94;}
</style>
<g>
	<path class="st0" d="M471.2,210.4v-25c0-7.8-4.7-13.4-12.7-13.4c-4.3,0-8.8,1.8-11,5.8l-0.6-4.8h-7.6v37.4h9v-15.3
		c0-3.2-0.1-7.1,1.2-10c1.2-2.7,3.3-4.8,6.5-4.8c4.8,0,6.2,2.7,6.2,7.1v23H471.2z M423.2,187.9H407c0.1-2.4,0.6-4.2,1.9-5.8
		c1.3-1.7,3.5-2.9,6.3-2.9c2.6,0,4.5,0.9,5.7,2.2C422.4,183,423.2,185.1,423.2,187.9 M432.2,192c0.1-4.7-0.5-8.9-3.2-13
		c-3.1-4.7-8.1-6.9-13.7-6.9c-5.1,0-9.1,1.9-12,4.8c-3.6,3.7-5.4,9-5.4,15c0,6.1,2,11.4,5.8,15c3,2.8,6.7,4.6,11.8,4.6
		c4.8,0,9.4-1.5,12.6-5.3c1.4-1.7,3-4.7,3.2-6.9h-8.6c-0.4,1.4-1,2.4-1.8,3.2c-1.3,1.3-2.9,1.8-5.5,1.8c-2.4,0-4.2-1.1-5.5-2.3
		c-1.8-1.7-2.8-4.5-2.7-7.3h25.1C432.2,193.7,432.2,192,432.2,192 M384.1,191.7c0,3.2-0.5,6.6-2.4,9.1c-1.3,1.7-3.2,3-6,3
		c-7.1,0-8.5-6.6-8.5-12s1.4-12.1,8.5-12.1c2.8,0,4.8,1.3,6,3C383.6,185,384.1,188.5,384.1,191.7 M393.3,191.6
		c0-7.1-2.2-12.7-6.7-16.3c-2.3-1.9-5.3-3.2-9.1-3.2c-4.1,0-8.3,1.5-10.5,5l-0.6-4.1h-7.8v51.8h9v-17.1c1.7,2.1,5.3,3.7,9.8,3.7
		c3.8,0,6.8-1.2,9.1-3C391.1,204.6,393.3,198.9,393.3,191.6 M353.4,181.3v-8.6c-0.9-0.1-1.9-0.2-2.8-0.2c-4.4,0-8.9,1.8-10.6,6.1
		l-0.8-5.6h-7.6v37.4h9.1v-18.9c0-6,3.3-10.6,9.6-10.6C351.3,180.9,352.4,181.1,353.4,181.3 M315.5,187.9h-16.2
		c0.1-2.4,0.6-4.2,1.9-5.8c1.3-1.7,3.5-2.9,6.3-2.9c2.6,0,4.5,0.9,5.7,2.2C314.7,183,315.5,185.1,315.5,187.9 M324.5,192
		c0.1-4.7-0.5-8.9-3.2-13c-3.1-4.7-8.1-6.9-13.7-6.9c-5.1,0-9.1,1.9-12,4.8c-3.6,3.7-5.4,9-5.4,15c0,6.1,2,11.4,5.8,15
		c3,2.8,6.7,4.6,11.8,4.6c4.8,0,9.4-1.5,12.6-5.3c1.4-1.7,3-4.7,3.2-6.9H315c-0.4,1.4-1,2.4-1.8,3.2c-1.3,1.3-2.9,1.8-5.5,1.8
		c-2.4,0-4.2-1.1-5.5-2.3c-1.8-1.7-2.8-4.5-2.7-7.3h25.1C324.5,193.7,324.5,192,324.5,192 M287.3,172.9h-8.6l-5.8,24.5l-7.9-24.1
		h-7.4l-7.8,24.2l-6-24.6h-8.7l9.5,37.4h8.4l8.4-25.3l8.5,25.3h8.4L287.3,172.9z M232.8,209.9v-7.6c-2.4,0.3-4,0.4-5.8,0.4
		c-2.9,0-4.2-1.2-4.2-4.1v-18.2h9.4v-7.4h-9.4v-11.7l-9,2.2v9.5H207v7.4h6.8v19c0,7.2,3.7,11.5,11.3,11.5
		C227.8,210.9,230.3,210.5,232.8,209.9 M202.3,210.4v-25c0-7.8-4.7-13.4-12.7-13.4c-4.3,0-8.8,1.8-11,5.8l-0.6-4.8h-7.6v37.4h9
		v-15.3c0-3.2-0.1-7.1,1.2-10c1.2-2.7,3.3-4.8,6.5-4.8c4.8,0,6.2,2.7,6.2,7.1v23H202.3z M151.9,195.5c0,5.5-4,8.6-9.6,8.6
		c-2.8,0-5.3-1.8-5.3-4.7c0-3,2.7-4.7,5.4-4.9l9.5-0.7V195.5z M164,210v-6.6c0,0-0.6,0.1-1.2,0.1c-1.5,0-2.1-0.6-2.1-2.4v-13.9
		c0-2.5-0.1-5.2-1.1-7.6c-2.2-5.6-7.6-7.6-14-7.6c-8.4,0-15,3.7-15.6,12.2h8.7c0.2-3.5,2.7-5.3,6.8-5.3c5.1,0,6.3,2.4,6.3,5.9v2.3
		l-11,0.8c-7.1,0.5-12.7,4.6-12.7,11.7c0,6.1,4.6,11.7,13.5,11.7c5.3,0,9.6-2.6,11.4-5.6c0.3,2.8,2.4,5.3,6.3,5.3
		C161.7,211,162.5,210.6,164,210"/>
	<path class="st0" d="M471.2,131.2v-25c0-7.8-4.7-13.4-12.7-13.4c-4.3,0-8.8,1.8-11,5.8l-0.6-4.8h-7.6v37.4h9v-15.3
		c0-3.2-0.1-7.1,1.2-10c1.2-2.7,3.3-4.8,6.5-4.8c4.8,0,6.2,2.7,6.2,7.1v23H471.2z M421.9,108.7h-16.2c0.1-2.4,0.6-4.2,1.9-5.8
		c1.3-1.7,3.5-2.9,6.3-2.9c2.6,0,4.5,0.9,5.7,2.2C421,103.8,421.8,105.9,421.9,108.7 M430.9,112.8c0.1-4.7-0.5-8.9-3.2-13
		c-3.1-4.7-8.1-6.9-13.7-6.9c-5.1,0-9.1,1.9-12,4.8c-3.6,3.7-5.4,9-5.4,15c0,6.1,2,11.4,5.8,15c3,2.8,6.7,4.6,11.8,4.6
		c4.8,0,9.4-1.5,12.6-5.3c1.4-1.7,3-4.7,3.2-6.9h-8.6c-0.4,1.4-1,2.4-1.8,3.2c-1.3,1.3-2.9,1.8-5.5,1.8c-2.4,0-4.2-1.1-5.5-2.3
		c-1.8-1.7-2.8-4.5-2.7-7.3h25.1C430.8,114.5,430.9,112.8,430.9,112.8 M392.3,130.7v-7.6c-2.4,0.3-4,0.4-5.8,0.4
		c-2.9,0-4.2-1.2-4.2-4.1v-18.2h9.4v-7.4h-9.4V82l-9,2.2v9.5h-6.8v7.4h6.8v19c0,7.2,3.7,11.5,11.3,11.5
		C387.2,131.7,389.8,131.3,392.3,130.7 M351.6,116.3c0,5.5-4,8.6-9.6,8.6c-2.8,0-5.3-1.8-5.3-4.7c0-3,2.7-4.7,5.4-4.9l9.5-0.7V116.3
		z M363.6,130.8v-6.6c0,0-0.6,0.1-1.2,0.1c-1.5,0-2.1-0.6-2.1-2.4V108c0-2.5-0.1-5.2-1.1-7.6c-2.2-5.6-7.6-7.6-14-7.6
		c-8.4,0-15,3.7-15.6,12.2h8.7c0.2-3.5,2.7-5.3,6.8-5.3c5.1,0,6.3,2.4,6.3,5.9v2.3l-11,0.8c-7.1,0.5-12.7,4.6-12.7,11.7
		c0,6.1,4.6,11.7,13.5,11.7c5.3,0,9.6-2.6,11.4-5.6c0.3,2.8,2.4,5.3,6.3,5.3C361.3,131.8,362.1,131.4,363.6,130.8 M323,117.9h-8.9
		c-0.1,1.4-0.5,2.5-1.1,3.5c-1.1,1.7-3,2.8-5.8,2.8c-2.4,0-4.2-1.1-5.5-2.4c-2.2-2.4-2.5-5.9-2.5-9.4c0-3.5,0.4-7.1,2.5-9.5
		c1.2-1.3,3-2.3,5.5-2.3c2.7,0,4.7,1.2,5.8,2.8c0.6,0.9,1,2.1,1.1,3.5h8.9c-0.1-3-1.2-5.9-2.9-8.1c-2.6-3.2-7.1-5.9-12.8-5.9
		c-5.7,0-10.4,2.7-13,5.9c-2.8,3.5-4.1,8.2-4.1,13.7c0,5.5,1.3,10.2,4.1,13.7c2.6,3.2,7.3,5.9,13,5.9c5.7,0,10.2-2.7,12.8-5.9
		C321.9,123.8,322.9,120.9,323,117.9 M275,112.5c0,3.5-0.5,7.1-2.7,9.4c-1.2,1.3-3.2,2.4-5.7,2.4s-4.5-1.1-5.7-2.4
		c-2.2-2.4-2.7-5.9-2.7-9.4s0.5-7.1,2.7-9.4c1.2-1.3,3.2-2.4,5.7-2.4s4.5,1.1,5.7,2.4C274.5,105.4,275,108.9,275,112.5 M284.1,112.5
		c0-6.3-1.6-10.3-4.4-13.8c-2.6-3.2-7.4-5.8-13.1-5.8c-5.7,0-10.5,2.7-13.1,5.8c-2.8,3.5-4.4,7.5-4.4,13.8c0,6.3,1.6,10.3,4.4,13.8
		c2.6,3.2,7.4,5.8,13.1,5.8c5.7,0,10.5-2.7,13.1-5.8C282.6,122.8,284.1,118.8,284.1,112.5 M246.5,93.7h-9.3l-8.9,26.4L219,93.7h-9.5
		l13.9,37.4h9.6L246.5,93.7z M195.3,112.4c0,5.4-1.4,12.1-8.5,12.1c-2.8,0-4.8-1.3-6-3c-1.9-2.4-2.4-5.9-2.4-9.1
		c0-3.2,0.5-6.6,2.4-9.1c1.3-1.7,3.2-3,6-3C193.8,100.4,195.3,107,195.3,112.4 M203.9,131.2v-52h-9v17.1c-1.6-1.9-5-3.5-9.8-3.5
		c-3.8,0-6.8,1.2-9.1,3c-4.5,3.7-6.7,9.4-6.7,16.7c0,7.1,2.2,12.7,6.6,16.3c2.3,1.9,5.4,3.2,9.1,3.2c4.1,0,8.3-1.5,10.5-5l0.6,4.1
		H203.9z M151.9,116.3c0,5.5-4,8.6-9.6,8.6c-2.8,0-5.3-1.8-5.3-4.7c0-3,2.7-4.7,5.4-4.9l9.5-0.7V116.3z M164,130.8v-6.6
		c0,0-0.6,0.1-1.2,0.1c-1.5,0-2.1-0.6-2.1-2.4V108c0-2.5-0.1-5.2-1.1-7.6c-2.2-5.6-7.6-7.6-14-7.6c-8.4,0-15,3.7-15.6,12.2h8.7
		c0.2-3.5,2.7-5.3,6.8-5.3c5.1,0,6.3,2.4,6.3,5.9v2.3l-11,0.8c-7.1,0.5-12.7,4.6-12.7,11.7c0,6.1,4.6,11.7,13.5,11.7
		c5.3,0,9.6-2.6,11.4-5.6c0.3,2.8,2.4,5.3,6.3,5.3C161.7,131.8,162.5,131.4,164,130.8"/>
	<path class="st0" d="M265.5,29.5h-16.2c0.1-2.4,0.6-4.2,1.9-5.8c1.3-1.7,3.5-2.9,6.3-2.9c2.6,0,4.5,0.9,5.7,2.2
		C264.6,24.6,265.4,26.7,265.5,29.5 M274.5,33.6c0.1-4.7-0.5-8.9-3.2-13c-3.1-4.7-8.1-6.9-13.7-6.9c-5.1,0-9.1,1.9-12,4.8
		c-3.6,3.7-5.4,9-5.4,15c0,6.1,2,11.4,5.8,15c3,2.8,6.7,4.6,11.8,4.6c4.8,0,9.4-1.5,12.6-5.3c1.4-1.7,3-4.7,3.2-6.9h-8.6
		c-0.4,1.4-1,2.4-1.8,3.2c-1.3,1.3-2.9,1.8-5.5,1.8c-2.4,0-4.2-1.1-5.5-2.3c-1.8-1.7-2.8-4.5-2.7-7.3h25.1
		C274.4,35.3,274.5,33.6,274.5,33.6 M223,33.2c0,5.4-1.4,12.1-8.5,12.1c-2.8,0-4.8-1.3-6-3c-1.9-2.4-2.4-5.9-2.4-9.1
		s0.5-6.6,2.4-9.1c1.3-1.7,3.2-3,6-3C221.6,21.2,223,27.8,223,33.2 M231.6,52V0h-9v17.1c-1.6-1.9-5-3.5-9.8-3.5
		c-3.8,0-6.8,1.2-9.1,3c-4.5,3.7-6.7,9.4-6.7,16.7c0,7.1,2.2,12.7,6.6,16.3c2.3,1.9,5.4,3.2,9.1,3.2c4.1,0,8.3-1.5,10.5-5l0.6,4.1
		H231.6z M194.2,22.9v-8.6c-0.9-0.1-1.9-0.2-2.8-0.2c-4.4,0-8.9,1.8-10.6,6.1l-0.8-5.6h-7.6V52h9.1V33.1c0-6,3.3-10.6,9.6-10.6
		C192.1,22.5,193.2,22.7,194.2,22.9 M154.6,33.3c0,3.5-0.5,7.1-2.7,9.4c-1.2,1.3-3.2,2.4-5.7,2.4s-4.5-1.1-5.7-2.4
		c-2.2-2.4-2.7-5.9-2.7-9.4c0-3.5,0.5-7.1,2.7-9.4c1.2-1.3,3.2-2.4,5.7-2.4s4.5,1.1,5.7,2.4C154.1,26.2,154.6,29.7,154.6,33.3
		 M163.8,33.3c0-6.3-1.6-10.3-4.4-13.8c-2.6-3.2-7.4-5.8-13.1-5.8c-5.7,0-10.5,2.7-13.1,5.8c-2.8,3.5-4.4,7.5-4.4,13.8
		c0,6.3,1.6,10.3,4.4,13.8c2.6,3.2,7.4,5.8,13.1,5.8c5.7,0,10.5-2.7,13.1-5.8C162.2,43.6,163.8,39.6,163.8,33.3"/>
	<path class="st1" d="M115,131.2v-25c0-7.8-4.7-13.4-12.7-13.4c-4.3,0-8.8,1.8-11,5.8l-0.6-4.8h-7.6v37.4h9v-15.3
		c0-3.2-0.1-7.1,1.2-10c1.2-2.7,3.3-4.8,6.5-4.8c4.8,0,6.2,2.7,6.2,7.1v23H115z M63.2,116.3c0,5.5-4,8.6-9.6,8.6
		c-2.8,0-5.3-1.8-5.3-4.7c0-3,2.7-4.7,5.4-4.9l9.5-0.7V116.3z M75.2,130.8v-6.6c0,0-0.6,0.1-1.2,0.1c-1.5,0-2.1-0.6-2.1-2.4V108
		c0-2.5-0.1-5.2-1.1-7.6c-2.2-5.6-7.6-7.6-14-7.6c-8.4,0-15,3.7-15.6,12.2H50c0.2-3.5,2.7-5.3,6.8-5.3c5.1,0,6.3,2.4,6.3,5.9v2.3
		l-11,0.8c-7.1,0.5-12.7,4.6-12.7,11.7c0,6.1,4.6,11.7,13.5,11.7c5.3,0,9.6-2.6,11.4-5.6c0.3,2.8,2.4,5.3,6.3,5.3
		C72.9,131.8,73.7,131.4,75.2,130.8 M37,93.7h-9.3l-8.9,26.4L9.5,93.7H0l13.9,37.4h9.6L37,93.7z"/>
	<path class="st1" d="M108.2,29.5H92c0.1-2.4,0.6-4.2,1.9-5.8c1.3-1.7,3.5-2.9,6.3-2.9c2.6,0,4.5,0.9,5.7,2.2
		C107.4,24.6,108.1,26.7,108.2,29.5 M117.2,33.6c0.1-4.7-0.5-8.9-3.2-13c-3.1-4.7-8.1-6.9-13.7-6.9c-5.1,0-9.1,1.9-12,4.8
		c-3.6,3.7-5.4,9-5.4,15c0,6.1,2,11.4,5.8,15c3,2.8,6.7,4.6,11.8,4.6c4.8,0,9.4-1.5,12.6-5.3c1.4-1.7,3-4.7,3.2-6.9h-8.6
		c-0.4,1.4-1,2.4-1.8,3.2c-1.3,1.3-2.9,1.8-5.5,1.8c-2.4,0-4.2-1.1-5.5-2.3C93,41.7,92,39,92.1,36.1h25.1
		C117.1,35.3,117.2,33.6,117.2,33.6 M65.7,33.2c0,5.4-1.4,12.1-8.5,12.1c-2.8,0-4.8-1.3-6-3c-1.9-2.4-2.4-5.9-2.4-9.1
		s0.5-6.6,2.4-9.1c1.3-1.7,3.2-3,6-3C64.3,21.2,65.7,27.8,65.7,33.2 M74.3,52V0h-9v17.1c-1.6-1.9-5-3.5-9.8-3.5
		c-3.8,0-6.8,1.2-9.1,3c-4.5,3.7-6.7,9.4-6.7,16.7c0,7.1,2.2,12.7,6.6,16.3c2.3,1.9,5.4,3.2,9.1,3.2c4.1,0,8.3-1.5,10.5-5l0.6,4.1
		H74.3z"/>
</g>
</svg>
